<svg class="rich-terminal" viewBox="0 0 1617 830.8" xmlns="http://www.w3.org/2000/svg">
    <!-- Generated with Rich https://www.textualize.io -->
    <style>

    @font-face {
        font-family: "Fira Code";
        src: local("FiraCode-Regular"),
                url("https://cdnjs.cloudflare.com/ajax/libs/firacode/6.2.0/woff2/FiraCode-Regular.woff2") format("woff2"),
                url("https://cdnjs.cloudflare.com/ajax/libs/firacode/6.2.0/woff/FiraCode-Regular.woff") format("woff");
        font-style: normal;
        font-weight: 400;
    }
    @font-face {
        font-family: "Fira Code";
        src: local("FiraCode-Bold"),
                url("https://cdnjs.cloudflare.com/ajax/libs/firacode/6.2.0/woff2/FiraCode-Bold.woff2") format("woff2"),
                url("https://cdnjs.cloudflare.com/ajax/libs/firacode/6.2.0/woff/FiraCode-Bold.woff") format("woff");
        font-style: bold;
        font-weight: 700;
    }

    .terminal-1897554627-matrix {
        font-family: Fira Code, monospace;
        font-size: 20px;
        line-height: 24.4px;
        font-variant-east-asian: full-width;
    }

    .terminal-1897554627-title {
        font-size: 18px;
        font-weight: bold;
        font-family: arial;
    }

    .terminal-1897554627-r1 { fill: #c5c8c6 }
.terminal-1897554627-r2 { fill: #e2e3e5;font-weight: bold }
.terminal-1897554627-r3 { fill: #e2e3e5 }
.terminal-1897554627-r4 { fill: #a1a5aa }
.terminal-1897554627-r5 { fill: #6e9e21;font-weight: bold }
.terminal-1897554627-r6 { fill: #e0e0e0 }
.terminal-1897554627-r7 { fill: #58d1eb;font-weight: bold }
.terminal-1897554627-r8 { fill: #fd971f }
.terminal-1897554627-r9 { fill: #98e024;font-weight: bold }
.terminal-1897554627-r10 { fill: #f4005f;font-weight: bold }
.terminal-1897554627-r11 { fill: #0178d4 }
.terminal-1897554627-r12 { fill: #797979 }
.terminal-1897554627-r13 { fill: #00ffff;font-weight: bold }
.terminal-1897554627-r14 { fill: #ff00ff;font-weight: bold }
.terminal-1897554627-r15 { fill: #ffff00;font-weight: bold }
.terminal-1897554627-r16 { fill: #ffa62b;font-weight: bold }
.terminal-1897554627-r17 { fill: #495259 }
    </style>

    <defs>
    <clipPath id="terminal-1897554627-clip-terminal">
      <rect x="0" y="0" width="1597.1999999999998" height="779.8" />
    </clipPath>
    <clipPath id="terminal-1897554627-line-0">
    <rect x="0" y="1.5" width="1598.2" height="24.65"/>
            </clipPath>
<clipPath id="terminal-1897554627-line-1">
    <rect x="0" y="25.9" width="1598.2" height="24.65"/>
            </clipPath>
<clipPath id="terminal-1897554627-line-2">
    <rect x="0" y="50.3" width="1598.2" height="24.65"/>
            </clipPath>
<clipPath id="terminal-1897554627-line-3">
    <rect x="0" y="74.7" width="1598.2" height="24.65"/>
            </clipPath>
<clipPath id="terminal-1897554627-line-4">
    <rect x="0" y="99.1" width="1598.2" height="24.65"/>
            </clipPath>
<clipPath id="terminal-1897554627-line-5">
    <rect x="0" y="123.5" width="1598.2" height="24.65"/>
            </clipPath>
<clipPath id="terminal-1897554627-line-6">
    <rect x="0" y="147.9" width="1598.2" height="24.65"/>
            </clipPath>
<clipPath id="terminal-1897554627-line-7">
    <rect x="0" y="172.3" width="1598.2" height="24.65"/>
            </clipPath>
<clipPath id="terminal-1897554627-line-8">
    <rect x="0" y="196.7" width="1598.2" height="24.65"/>
            </clipPath>
<clipPath id="terminal-1897554627-line-9">
    <rect x="0" y="221.1" width="1598.2" height="24.65"/>
            </clipPath>
<clipPath id="terminal-1897554627-line-10">
    <rect x="0" y="245.5" width="1598.2" height="24.65"/>
            </clipPath>
<clipPath id="terminal-1897554627-line-11">
    <rect x="0" y="269.9" width="1598.2" height="24.65"/>
            </clipPath>
<clipPath id="terminal-1897554627-line-12">
    <rect x="0" y="294.3" width="1598.2" height="24.65"/>
            </clipPath>
<clipPath id="terminal-1897554627-line-13">
    <rect x="0" y="318.7" width="1598.2" height="24.65"/>
            </clipPath>
<clipPath id="terminal-1897554627-line-14">
    <rect x="0" y="343.1" width="1598.2" height="24.65"/>
            </clipPath>
<clipPath id="terminal-1897554627-line-15">
    <rect x="0" y="367.5" width="1598.2" height="24.65"/>
            </clipPath>
<clipPath id="terminal-1897554627-line-16">
    <rect x="0" y="391.9" width="1598.2" height="24.65"/>
            </clipPath>
<clipPath id="terminal-1897554627-line-17">
    <rect x="0" y="416.3" width="1598.2" height="24.65"/>
            </clipPath>
<clipPath id="terminal-1897554627-line-18">
    <rect x="0" y="440.7" width="1598.2" height="24.65"/>
            </clipPath>
<clipPath id="terminal-1897554627-line-19">
    <rect x="0" y="465.1" width="1598.2" height="24.65"/>
            </clipPath>
<clipPath id="terminal-1897554627-line-20">
    <rect x="0" y="489.5" width="1598.2" height="24.65"/>
            </clipPath>
<clipPath id="terminal-1897554627-line-21">
    <rect x="0" y="513.9" width="1598.2" height="24.65"/>
            </clipPath>
<clipPath id="terminal-1897554627-line-22">
    <rect x="0" y="538.3" width="1598.2" height="24.65"/>
            </clipPath>
<clipPath id="terminal-1897554627-line-23">
    <rect x="0" y="562.7" width="1598.2" height="24.65"/>
            </clipPath>
<clipPath id="terminal-1897554627-line-24">
    <rect x="0" y="587.1" width="1598.2" height="24.65"/>
            </clipPath>
<clipPath id="terminal-1897554627-line-25">
    <rect x="0" y="611.5" width="1598.2" height="24.65"/>
            </clipPath>
<clipPath id="terminal-1897554627-line-26">
    <rect x="0" y="635.9" width="1598.2" height="24.65"/>
            </clipPath>
<clipPath id="terminal-1897554627-line-27">
    <rect x="0" y="660.3" width="1598.2" height="24.65"/>
            </clipPath>
<clipPath id="terminal-1897554627-line-28">
    <rect x="0" y="684.7" width="1598.2" height="24.65"/>
            </clipPath>
<clipPath id="terminal-1897554627-line-29">
    <rect x="0" y="709.1" width="1598.2" height="24.65"/>
            </clipPath>
<clipPath id="terminal-1897554627-line-30">
    <rect x="0" y="733.5" width="1598.2" height="24.65"/>
            </clipPath>
    </defs>

    <rect fill="#292929" stroke="rgba(255,255,255,0.35)" stroke-width="1" x="1" y="1" width="1615" height="828.8" rx="8"/><text class="terminal-1897554627-title" fill="#c5c8c6" text-anchor="middle" x="807" y="27">Aden&#160;TUI&#160;Dashboard</text>
            <g transform="translate(26,22)">
            <circle cx="0" cy="0" r="7" fill="#ff5f57"/>
            <circle cx="22" cy="0" r="7" fill="#febc2e"/>
            <circle cx="44" cy="0" r="7" fill="#28c840"/>
            </g>
        
    <g transform="translate(9, 41)" clip-path="url(#terminal-1897554627-clip-terminal)">
    <rect fill="#242f38" x="0" y="1.5" width="12.2" height="24.65" shape-rendering="crispEdges"/><rect fill="#242f38" x="12.2" y="1.5" width="134.2" height="24.65" shape-rendering="crispEdges"/><rect fill="#242f38" x="146.4" y="1.5" width="36.6" height="24.65" shape-rendering="crispEdges"/><rect fill="#242f38" x="183" y="1.5" width="73.2" height="24.65" shape-rendering="crispEdges"/><rect fill="#242f38" x="256.2" y="1.5" width="1329.8" height="24.65" shape-rendering="crispEdges"/><rect fill="#242f38" x="1586" y="1.5" width="12.2" height="24.65" shape-rendering="crispEdges"/><rect fill="#1e1e1e" x="0" y="25.9" width="97.6" height="24.65" shape-rendering="crispEdges"/><rect fill="#1e1e1e" x="97.6" y="25.9" width="536.8" height="24.65" shape-rendering="crispEdges"/><rect fill="#1e1e1e" x="634.4" y="25.9" width="292.8" height="24.65" shape-rendering="crispEdges"/><rect fill="#242f38" x="927.2" y="25.9" width="24.4" height="24.65" shape-rendering="crispEdges"/><rect fill="#242f38" x="951.6" y="25.9" width="12.2" height="24.65" shape-rendering="crispEdges"/><rect fill="#1e1e1e" x="963.8" y="25.9" width="183" height="24.65" shape-rendering="crispEdges"/><rect fill="#1e1e1e" x="1146.8" y="25.9" width="292.8" height="24.65" shape-rendering="crispEdges"/><rect fill="#1e1e1e" x="1439.6" y="25.9" width="134.2" height="24.65" shape-rendering="crispEdges"/><rect fill="#242f38" x="1573.8" y="25.9" width="24.4" height="24.65" shape-rendering="crispEdges"/><rect fill="#1e1e1e" x="0" y="50.3" width="97.6" height="24.65" shape-rendering="crispEdges"/><rect fill="#1e1e1e" x="97.6" y="50.3" width="512.4" height="24.65" shape-rendering="crispEdges"/><rect fill="#1e1e1e" x="610" y="50.3" width="36.6" height="24.65" shape-rendering="crispEdges"/><rect fill="#1e1e1e" x="646.6" y="50.3" width="280.6" height="24.65" shape-rendering="crispEdges"/><rect fill="#242f38" x="927.2" y="50.3" width="24.4" height="24.65" shape-rendering="crispEdges"/><rect fill="#242f38" x="951.6" y="50.3" width="12.2" height="24.65" shape-rendering="crispEdges"/><rect fill="#1e1e1e" x="963.8" y="50.3" width="610" height="24.65" shape-rendering="crispEdges"/><rect fill="#242f38" x="1573.8" y="50.3" width="24.4" height="24.65" shape-rendering="crispEdges"/><rect fill="#1e1e1e" x="0" y="74.7" width="927.2" height="24.65" shape-rendering="crispEdges"/><rect fill="#242f38" x="927.2" y="74.7" width="24.4" height="24.65" shape-rendering="crispEdges"/><rect fill="#242f38" x="951.6" y="74.7" width="12.2" height="24.65" shape-rendering="crispEdges"/><rect fill="#1e1e1e" x="963.8" y="74.7" width="48.8" height="24.65" shape-rendering="crispEdges"/><rect fill="#1e1e1e" x="1012.6" y="74.7" width="36.6" height="24.65" shape-rendering="crispEdges"/><rect fill="#1e1e1e" x="1049.2" y="74.7" width="524.6" height="24.65" shape-rendering="crispEdges"/><rect fill="#242f38" x="1573.8" y="74.7" width="24.4" height="24.65" shape-rendering="crispEdges"/><rect fill="#1e1e1e" x="0" y="99.1" width="927.2" height="24.65" shape-rendering="crispEdges"/><rect fill="#242f38" x="927.2" y="99.1" width="24.4" height="24.65" shape-rendering="crispEdges"/><rect fill="#242f38" x="951.6" y="99.1" width="12.2" height="24.65" shape-rendering="crispEdges"/><rect fill="#1e1e1e" x="963.8" y="99.1" width="73.2" height="24.65" shape-rendering="crispEdges"/><rect fill="#1e1e1e" x="1037" y="99.1" width="195.2" height="24.65" shape-rendering="crispEdges"/><rect fill="#1e1e1e" x="1232.2" y="99.1" width="341.6" height="24.65" shape-rendering="crispEdges"/><rect fill="#242f38" x="1573.8" y="99.1" width="24.4" height="24.65" shape-rendering="crispEdges"/><rect fill="#1e1e1e" x="0" y="123.5" width="927.2" height="24.65" shape-rendering="crispEdges"/><rect fill="#242f38" x="927.2" y="123.5" width="24.4" height="24.65" shape-rendering="crispEdges"/><rect fill="#242f38" x="951.6" y="123.5" width="12.2" height="24.65" shape-rendering="crispEdges"/><rect fill="#1e1e1e" x="963.8" y="123.5" width="610" height="24.65" shape-rendering="crispEdges"/><rect fill="#242f38" x="1573.8" y="123.5" width="24.4" height="24.65" shape-rendering="crispEdges"/><rect fill="#1e1e1e" x="0" y="147.9" width="927.2" height="24.65" shape-rendering="crispEdges"/><rect fill="#242f38" x="927.2" y="147.9" width="24.4" height="24.65" shape-rendering="crispEdges"/><rect fill="#242f38" x="951.6" y="147.9" width="12.2" height="24.65" shape-rendering="crispEdges"/><rect fill="#1e1e1e" x="963.8" y="147.9" width="610" height="24.65" shape-rendering="crispEdges"/><rect fill="#242f38" x="1573.8" y="147.9" width="24.4" height="24.65" shape-rendering="crispEdges"/><rect fill="#1e1e1e" x="0" y="172.3" width="927.2" height="24.65" shape-rendering="crispEdges"/><rect fill="#242f38" x="927.2" y="172.3" width="24.4" height="24.65" shape-rendering="crispEdges"/><rect fill="#242f38" x="951.6" y="172.3" width="12.2" height="24.65" shape-rendering="crispEdges"/><rect fill="#1e1e1e" x="963.8" y="172.3" width="610" height="24.65" shape-rendering="crispEdges"/><rect fill="#242f38" x="1573.8" y="172.3" width="24.4" height="24.65" shape-rendering="crispEdges"/><rect fill="#1e1e1e" x="0" y="196.7" width="927.2" height="24.65" shape-rendering="crispEdges"/><rect fill="#242f38" x="927.2" y="196.7" width="24.4" height="24.65" shape-rendering="crispEdges"/><rect fill="#242f38" x="951.6" y="196.7" width="12.2" height="24.65" shape-rendering="crispEdges"/><rect fill="#1e1e1e" x="963.8" y="196.7" width="610" height="24.65" shape-rendering="crispEdges"/><rect fill="#242f38" x="1573.8" y="196.7" width="24.4" height="24.65" shape-rendering="crispEdges"/><rect fill="#1e1e1e" x="0" y="221.1" width="927.2" height="24.65" shape-rendering="crispEdges"/><rect fill="#242f38" x="927.2" y="221.1" width="24.4" height="24.65" shape-rendering="crispEdges"/><rect fill="#242f38" x="951.6" y="221.1" width="12.2" height="24.65" shape-rendering="crispEdges"/><rect fill="#1e1e1e" x="963.8" y="221.1" width="610" height="24.65" shape-rendering="crispEdges"/><rect fill="#242f38" x="1573.8" y="221.1" width="24.4" height="24.65" shape-rendering="crispEdges"/><rect fill="#1e1e1e" x="0" y="245.5" width="927.2" height="24.65" shape-rendering="crispEdges"/><rect fill="#242f38" x="927.2" y="245.5" width="24.4" height="24.65" shape-rendering="crispEdges"/><rect fill="#242f38" x="951.6" y="245.5" width="12.2" height="24.65" shape-rendering="crispEdges"/><rect fill="#1e1e1e" x="963.8" y="245.5" width="610" height="24.65" shape-rendering="crispEdges"/><rect fill="#242f38" x="1573.8" y="245.5" width="24.4" height="24.65" shape-rendering="crispEdges"/><rect fill="#1e1e1e" x="0" y="269.9" width="927.2" height="24.65" shape-rendering="crispEdges"/><rect fill="#242f38" x="927.2" y="269.9" width="24.4" height="24.65" shape-rendering="crispEdges"/><rect fill="#242f38" x="951.6" y="269.9" width="12.2" height="24.65" shape-rendering="crispEdges"/><rect fill="#1e1e1e" x="963.8" y="269.9" width="610" height="24.65" shape-rendering="crispEdges"/><rect fill="#242f38" x="1573.8" y="269.9" width="24.4" height="24.65" shape-rendering="crispEdges"/><rect fill="#1e1e1e" x="0" y="294.3" width="927.2" height="24.65" shape-rendering="crispEdges"/><rect fill="#242f38" x="927.2" y="294.3" width="24.4" height="24.65" shape-rendering="crispEdges"/><rect fill="#242f38" x="951.6" y="294.3" width="12.2" height="24.65" shape-rendering="crispEdges"/><rect fill="#1e1e1e" x="963.8" y="294.3" width="610" height="24.65" shape-rendering="crispEdges"/><rect fill="#242f38" x="1573.8" y="294.3" width="24.4" height="24.65" shape-rendering="crispEdges"/><rect fill="#1e1e1e" x="0" y="318.7" width="927.2" height="24.65" shape-rendering="crispEdges"/><rect fill="#242f38" x="927.2" y="318.7" width="24.4" height="24.65" shape-rendering="crispEdges"/><rect fill="#242f38" x="951.6" y="318.7" width="12.2" height="24.65" shape-rendering="crispEdges"/><rect fill="#1e1e1e" x="963.8" y="318.7" width="610" height="24.65" shape-rendering="crispEdges"/><rect fill="#242f38" x="1573.8" y="318.7" width="24.4" height="24.65" shape-rendering="crispEdges"/><rect fill="#1e1e1e" x="0" y="343.1" width="951.6" height="24.65" shape-rendering="crispEdges"/><rect fill="#242f38" x="951.6" y="343.1" width="12.2" height="24.65" shape-rendering="crispEdges"/><rect fill="#1e1e1e" x="963.8" y="343.1" width="610" height="24.65" shape-rendering="crispEdges"/><rect fill="#242f38" x="1573.8" y="343.1" width="24.4" height="24.65" shape-rendering="crispEdges"/><rect fill="#1e1e1e" x="0" y="367.5" width="146.4" height="24.65" shape-rendering="crispEdges"/><rect fill="#1e1e1e" x="146.4" y="367.5" width="146.4" height="24.65" shape-rendering="crispEdges"/><rect fill="#1e1e1e" x="292.8" y="367.5" width="634.4" height="24.65" shape-rendering="crispEdges"/><rect fill="#242f38" x="927.2" y="367.5" width="24.4" height="24.65" shape-rendering="crispEdges"/><rect fill="#242f38" x="951.6" y="367.5" width="12.2" height="24.65" shape-rendering="crispEdges"/><rect fill="#1e1e1e" x="963.8" y="367.5" width="610" height="24.65" shape-rendering="crispEdges"/><rect fill="#242f38" x="1573.8" y="367.5" width="24.4" height="24.65" shape-rendering="crispEdges"/><rect fill="#1e1e1e" x="0" y="391.9" width="927.2" height="24.65" shape-rendering="crispEdges"/><rect fill="#242f38" x="927.2" y="391.9" width="24.4" height="24.65" shape-rendering="crispEdges"/><rect fill="#242f38" x="951.6" y="391.9" width="12.2" height="24.65" shape-rendering="crispEdges"/><rect fill="#1e1e1e" x="963.8" y="391.9" width="610" height="24.65" shape-rendering="crispEdges"/><rect fill="#242f38" x="1573.8" y="391.9" width="24.4" height="24.65" shape-rendering="crispEdges"/><rect fill="#1e1e1e" x="0" y="416.3" width="48.8" height="24.65" shape-rendering="crispEdges"/><rect fill="#1e1e1e" x="48.8" y="416.3" width="878.4" height="24.65" shape-rendering="crispEdges"/><rect fill="#242f38" x="927.2" y="416.3" width="24.4" height="24.65" shape-rendering="crispEdges"/><rect fill="#242f38" x="951.6" y="416.3" width="12.2" height="24.65" shape-rendering="crispEdges"/><rect fill="#1e1e1e" x="963.8" y="416.3" width="610" height="24.65" shape-rendering="crispEdges"/><rect fill="#242f38" x="1573.8" y="416.3" width="24.4" height="24.65" shape-rendering="crispEdges"/><rect fill="#1e1e1e" x="0" y="440.7" width="927.2" height="24.65" shape-rendering="crispEdges"/><rect fill="#242f38" x="927.2" y="440.7" width="24.4" height="24.65" shape-rendering="crispEdges"/><rect fill="#242f38" x="951.6" y="440.7" width="12.2" height="24.65" shape-rendering="crispEdges"/><rect fill="#1e1e1e" x="963.8" y="440.7" width="610" height="24.65" shape-rendering="crispEdges"/><rect fill="#242f38" x="1573.8" y="440.7" width="24.4" height="24.65" shape-rendering="crispEdges"/><rect fill="#1e1e1e" x="0" y="465.1" width="927.2" height="24.65" shape-rendering="crispEdges"/><rect fill="#242f38" x="927.2" y="465.1" width="24.4" height="24.65" shape-rendering="crispEdges"/><rect fill="#242f38" x="951.6" y="465.1" width="12.2" height="24.65" shape-rendering="crispEdges"/><rect fill="#1e1e1e" x="963.8" y="465.1" width="610" height="24.65" shape-rendering="crispEdges"/><rect fill="#242f38" x="1573.8" y="465.1" width="24.4" height="24.65" shape-rendering="crispEdges"/><rect fill="#1e1e1e" x="0" y="489.5" width="927.2" height="24.65" shape-rendering="crispEdges"/><rect fill="#242f38" x="927.2" y="489.5" width="24.4" height="24.65" shape-rendering="crispEdges"/><rect fill="#242f38" x="951.6" y="489.5" width="12.2" height="24.65" shape-rendering="crispEdges"/><rect fill="#1e1e1e" x="963.8" y="489.5" width="610" height="24.65" shape-rendering="crispEdges"/><rect fill="#242f38" x="1573.8" y="489.5" width="24.4" height="24.65" shape-rendering="crispEdges"/><rect fill="#1e1e1e" x="0" y="513.9" width="927.2" height="24.65" shape-rendering="crispEdges"/><rect fill="#242f38" x="927.2" y="513.9" width="24.4" height="24.65" shape-rendering="crispEdges"/><rect fill="#242f38" x="951.6" y="513.9" width="12.2" height="24.65" shape-rendering="crispEdges"/><rect fill="#1e1e1e" x="963.8" y="513.9" width="610" height="24.65" shape-rendering="crispEdges"/><rect fill="#242f38" x="1573.8" y="513.9" width="24.4" height="24.65" shape-rendering="crispEdges"/><rect fill="#1e1e1e" x="0" y="538.3" width="927.2" height="24.65" shape-rendering="crispEdges"/><rect fill="#242f38" x="927.2" y="538.3" width="24.4" height="24.65" shape-rendering="crispEdges"/><rect fill="#242f38" x="951.6" y="538.3" width="12.2" height="24.65" shape-rendering="crispEdges"/><rect fill="#1e1e1e" x="963.8" y="538.3" width="610" height="24.65" shape-rendering="crispEdges"/><rect fill="#242f38" x="1573.8" y="538.3" width="24.4" height="24.65" shape-rendering="crispEdges"/><rect fill="#1e1e1e" x="0" y="562.7" width="927.2" height="24.65" shape-rendering="crispEdges"/><rect fill="#242f38" x="927.2" y="562.7" width="24.4" height="24.65" shape-rendering="crispEdges"/><rect fill="#242f38" x="951.6" y="562.7" width="12.2" height="24.65" shape-rendering="crispEdges"/><rect fill="#1e1e1e" x="963.8" y="562.7" width="610" height="24.65" shape-rendering="crispEdges"/><rect fill="#242f38" x="1573.8" y="562.7" width="24.4" height="24.65" shape-rendering="crispEdges"/><rect fill="#1e1e1e" x="0" y="587.1" width="927.2" height="24.65" shape-rendering="crispEdges"/><rect fill="#242f38" x="927.2" y="587.1" width="24.4" height="24.65" shape-rendering="crispEdges"/><rect fill="#242f38" x="951.6" y="587.1" width="12.2" height="24.65" shape-rendering="crispEdges"/><rect fill="#1e1e1e" x="963.8" y="587.1" width="610" height="24.65" shape-rendering="crispEdges"/><rect fill="#242f38" x="1573.8" y="587.1" width="24.4" height="24.65" shape-rendering="crispEdges"/><rect fill="#1e1e1e" x="0" y="611.5" width="951.6" height="24.65" shape-rendering="crispEdges"/><rect fill="#242f38" x="951.6" y="611.5" width="12.2" height="24.65" shape-rendering="crispEdges"/><rect fill="#1e1e1e" x="963.8" y="611.5" width="610" height="24.65" shape-rendering="crispEdges"/><rect fill="#242f38" x="1573.8" y="611.5" width="24.4" height="24.65" shape-rendering="crispEdges"/><rect fill="#1e1e1e" x="0" y="635.9" width="951.6" height="24.65" shape-rendering="crispEdges"/><rect fill="#242f38" x="951.6" y="635.9" width="12.2" height="24.65" shape-rendering="crispEdges"/><rect fill="#1e1e1e" x="963.8" y="635.9" width="610" height="24.65" shape-rendering="crispEdges"/><rect fill="#242f38" x="1573.8" y="635.9" width="24.4" height="24.65" shape-rendering="crispEdges"/><rect fill="#1e1e1e" x="0" y="660.3" width="951.6" height="24.65" shape-rendering="crispEdges"/><rect fill="#242f38" x="951.6" y="660.3" width="646.6" height="24.65" shape-rendering="crispEdges"/><rect fill="#242f38" x="0" y="684.7" width="951.6" height="24.65" shape-rendering="crispEdges"/><rect fill="#242f38" x="951.6" y="684.7" width="12.2" height="24.65" shape-rendering="crispEdges"/><rect fill="#272727" x="963.8" y="684.7" width="24.4" height="24.65" shape-rendering="crispEdges"/><rect fill="#272727" x="988.2" y="684.7" width="292.8" height="24.65" shape-rendering="crispEdges"/><rect fill="#272727" x="1281" y="684.7" width="292.8" height="24.65" shape-rendering="crispEdges"/><rect fill="#272727" x="1573.8" y="684.7" width="24.4" height="24.65" shape-rendering="crispEdges"/><rect fill="#242f38" x="0" y="709.1" width="12.2" height="24.65" shape-rendering="crispEdges"/><rect fill="#242f38" x="12.2" y="709.1" width="85.4" height="24.65" shape-rendering="crispEdges"/><rect fill="#242f38" x="97.6" y="709.1" width="61" height="24.65" shape-rendering="crispEdges"/><rect fill="#242f38" x="158.6" y="709.1" width="61" height="24.65" shape-rendering="crispEdges"/><rect fill="#242f38" x="219.6" y="709.1" width="97.6" height="24.65" shape-rendering="crispEdges"/><rect fill="#242f38" x="317.2" y="709.1" width="85.4" height="24.65" shape-rendering="crispEdges"/><rect fill="#242f38" x="402.6" y="709.1" width="61" height="24.65" shape-rendering="crispEdges"/><rect fill="#242f38" x="463.6" y="709.1" width="61" height="24.65" shape-rendering="crispEdges"/><rect fill="#242f38" x="524.6" y="709.1" width="97.6" height="24.65" shape-rendering="crispEdges"/><rect fill="#242f38" x="622.2" y="709.1" width="85.4" height="24.65" shape-rendering="crispEdges"/><rect fill="#242f38" x="707.6" y="709.1" width="73.2" height="24.65" shape-rendering="crispEdges"/><rect fill="#242f38" x="780.8" y="709.1" width="61" height="24.65" shape-rendering="crispEdges"/><rect fill="#242f38" x="841.8" y="709.1" width="97.6" height="24.65" shape-rendering="crispEdges"/><rect fill="#242f38" x="939.4" y="709.1" width="12.2" height="24.65" shape-rendering="crispEdges"/><rect fill="#242f38" x="951.6" y="709.1" width="12.2" height="24.65" shape-rendering="crispEdges"/><rect fill="#272727" x="963.8" y="709.1" width="24.4" height="24.65" shape-rendering="crispEdges"/><rect fill="#272727" x="988.2" y="709.1" width="585.6" height="24.65" shape-rendering="crispEdges"/><rect fill="#272727" x="1573.8" y="709.1" width="24.4" height="24.65" shape-rendering="crispEdges"/><rect fill="#242f38" x="0" y="733.5" width="12.2" height="24.65" shape-rendering="crispEdges"/><rect fill="#242f38" x="12.2" y="733.5" width="927.2" height="24.65" shape-rendering="crispEdges"/><rect fill="#242f38" x="939.4" y="733.5" width="12.2" height="24.65" shape-rendering="crispEdges"/><rect fill="#242f38" x="951.6" y="733.5" width="12.2" height="24.65" shape-rendering="crispEdges"/><rect fill="#272727" x="963.8" y="733.5" width="24.4" height="24.65" shape-rendering="crispEdges"/><rect fill="#272727" x="988.2" y="733.5" width="585.6" height="24.65" shape-rendering="crispEdges"/><rect fill="#272727" x="1573.8" y="733.5" width="24.4" height="24.65" shape-rendering="crispEdges"/><rect fill="#242f38" x="0" y="757.9" width="48.8" height="24.65" shape-rendering="crispEdges"/><rect fill="#242f38" x="48.8" y="757.9" width="207.4" height="24.65" shape-rendering="crispEdges"/><rect fill="#242f38" x="256.2" y="757.9" width="1195.6" height="24.65" shape-rendering="crispEdges"/><rect fill="#242f38" x="1451.8" y="757.9" width="12.2" height="24.65" shape-rendering="crispEdges"/><rect fill="#242f38" x="1464" y="757.9" width="24.4" height="24.65" shape-rendering="crispEdges"/><rect fill="#242f38" x="1488.4" y="757.9" width="97.6" height="24.65" shape-rendering="crispEdges"/><rect fill="#242f38" x="1586" y="757.9" width="12.2" height="24.65" shape-rendering="crispEdges"/>
    <g class="terminal-1897554627-matrix">
    <text class="terminal-1897554627-r2" x="12.2" y="20" textLength="134.2" clip-path="url(#terminal-1897554627-line-0)">agent-graph</text><text class="terminal-1897554627-r3" x="146.4" y="20" textLength="36.6" clip-path="url(#terminal-1897554627-line-0)">&#160;│&#160;</text><text class="terminal-1897554627-r4" x="183" y="20" textLength="73.2" clip-path="url(#terminal-1897554627-line-0)">○&#160;idle</text><text class="terminal-1897554627-r1" x="1598.2" y="20" textLength="12.2" clip-path="url(#terminal-1897554627-line-0)">
</text><text class="terminal-1897554627-r5" x="0" y="44.4" textLength="97.6" clip-path="url(#terminal-1897554627-line-1)">12:44:28</text><text class="terminal-1897554627-r6" x="97.6" y="44.4" textLength="536.8" clip-path="url(#terminal-1897554627-line-1)">&#160;INFO&#160;TUI&#160;Dashboard&#160;initialized&#160;successfully</text><text class="terminal-1897554627-r7" x="963.8" y="44.4" textLength="183" clip-path="url(#terminal-1897554627-line-1)">Chat&#160;REPL&#160;Ready</text><text class="terminal-1897554627-r6" x="1146.8" y="44.4" textLength="292.8" clip-path="url(#terminal-1897554627-line-1)">&#160;—&#160;Type&#160;your&#160;input&#160;below</text><text class="terminal-1897554627-r1" x="1598.2" y="44.4" textLength="12.2" clip-path="url(#terminal-1897554627-line-1)">
</text><text class="terminal-1897554627-r5" x="0" y="68.8" textLength="97.6" clip-path="url(#terminal-1897554627-line-2)">12:44:28</text><text class="terminal-1897554627-r6" x="97.6" y="68.8" textLength="512.4" clip-path="url(#terminal-1897554627-line-2)">&#160;INFO&#160;Waiting&#160;for&#160;agent&#160;execution&#160;to&#160;start</text><text class="terminal-1897554627-r8" x="610" y="68.8" textLength="36.6" clip-path="url(#terminal-1897554627-line-2)">...</text><text class="terminal-1897554627-r1" x="1598.2" y="68.8" textLength="12.2" clip-path="url(#terminal-1897554627-line-2)">
</text><text class="terminal-1897554627-r9" x="963.8" y="93.2" textLength="48.8" clip-path="url(#terminal-1897554627-line-3)">You:</text><text class="terminal-1897554627-r6" x="1012.6" y="93.2" textLength="36.6" clip-path="url(#terminal-1897554627-line-3)">&#160;hi</text><text class="terminal-1897554627-r1" x="1598.2" y="93.2" textLength="12.2" clip-path="url(#terminal-1897554627-line-3)">
</text><text class="terminal-1897554627-r10" x="963.8" y="117.6" textLength="73.2" clip-path="url(#terminal-1897554627-line-4)">Error:</text><text class="terminal-1897554627-r6" x="1037" y="117.6" textLength="195.2" clip-path="url(#terminal-1897554627-line-4)">&#160;No&#160;entry&#160;points</text><text class="terminal-1897554627-r1" x="1598.2" y="117.6" textLength="12.2" clip-path="url(#terminal-1897554627-line-4)">
</text><text class="terminal-1897554627-r1" x="1598.2" y="142" textLength="12.2" clip-path="url(#terminal-1897554627-line-5)">
</text><text class="terminal-1897554627-r1" x="1598.2" y="166.4" textLength="12.2" clip-path="url(#terminal-1897554627-line-6)">
</text><text class="terminal-1897554627-r1" x="1598.2" y="190.8" textLength="12.2" clip-path="url(#terminal-1897554627-line-7)">
</text><text class="terminal-1897554627-r1" x="1598.2" y="215.2" textLength="12.2" clip-path="url(#terminal-1897554627-line-8)">
</text><text class="terminal-1897554627-r1" x="1598.2" y="239.6" textLength="12.2" clip-path="url(#terminal-1897554627-line-9)">
</text><text class="terminal-1897554627-r1" x="1598.2" y="264" textLength="12.2" clip-path="url(#terminal-1897554627-line-10)">
</text><text class="terminal-1897554627-r1" x="1598.2" y="288.4" textLength="12.2" clip-path="url(#terminal-1897554627-line-11)">
</text><text class="terminal-1897554627-r1" x="1598.2" y="312.8" textLength="12.2" clip-path="url(#terminal-1897554627-line-12)">
</text><text class="terminal-1897554627-r1" x="1598.2" y="337.2" textLength="12.2" clip-path="url(#terminal-1897554627-line-13)">
</text><text class="terminal-1897554627-r1" x="1598.2" y="361.6" textLength="12.2" clip-path="url(#terminal-1897554627-line-14)">
</text><text class="terminal-1897554627-r7" x="0" y="386" textLength="146.4" clip-path="url(#terminal-1897554627-line-15)">Agent&#160;Graph:</text><text class="terminal-1897554627-r6" x="146.4" y="386" textLength="146.4" clip-path="url(#terminal-1897554627-line-15)">&#160;agent-graph</text><text class="terminal-1897554627-r1" x="1598.2" y="386" textLength="12.2" clip-path="url(#terminal-1897554627-line-15)">
</text><text class="terminal-1897554627-r1" x="1598.2" y="410.4" textLength="12.2" clip-path="url(#terminal-1897554627-line-16)">
</text><text class="terminal-1897554627-r6" x="0" y="434.8" textLength="48.8" clip-path="url(#terminal-1897554627-line-17)">&#160;&#160;○&#160;</text><text class="terminal-1897554627-r1" x="1598.2" y="434.8" textLength="12.2" clip-path="url(#terminal-1897554627-line-17)">
</text><text class="terminal-1897554627-r1" x="1598.2" y="459.2" textLength="12.2" clip-path="url(#terminal-1897554627-line-18)">
</text><text class="terminal-1897554627-r1" x="1598.2" y="483.6" textLength="12.2" clip-path="url(#terminal-1897554627-line-19)">
</text><text class="terminal-1897554627-r1" x="1598.2" y="508" textLength="12.2" clip-path="url(#terminal-1897554627-line-20)">
</text><text class="terminal-1897554627-r1" x="1598.2" y="532.4" textLength="12.2" clip-path="url(#terminal-1897554627-line-21)">
</text><text class="terminal-1897554627-r1" x="1598.2" y="556.8" textLength="12.2" clip-path="url(#terminal-1897554627-line-22)">
</text><text class="terminal-1897554627-r1" x="1598.2" y="581.2" textLength="12.2" clip-path="url(#terminal-1897554627-line-23)">
</text><text class="terminal-1897554627-r1" x="1598.2" y="605.6" textLength="12.2" clip-path="url(#terminal-1897554627-line-24)">
</text><text class="terminal-1897554627-r1" x="1598.2" y="630" textLength="12.2" clip-path="url(#terminal-1897554627-line-25)">
</text><text class="terminal-1897554627-r1" x="1598.2" y="654.4" textLength="12.2" clip-path="url(#terminal-1897554627-line-26)">
</text><text class="terminal-1897554627-r1" x="1598.2" y="678.8" textLength="12.2" clip-path="url(#terminal-1897554627-line-27)">
</text><text class="terminal-1897554627-r11" x="0" y="703.2" textLength="951.6" clip-path="url(#terminal-1897554627-line-28)">──────────────────────────────────────────────────────────────────────────────</text><text class="terminal-1897554627-r12" x="988.2" y="703.2" textLength="292.8" clip-path="url(#terminal-1897554627-line-28)">Enter&#160;input&#160;for&#160;agent...</text><text class="terminal-1897554627-r1" x="1598.2" y="703.2" textLength="12.2" clip-path="url(#terminal-1897554627-line-28)">
</text><text class="terminal-1897554627-r3" x="97.6" y="727.6" textLength="61" clip-path="url(#terminal-1897554627-line-29)">CPU:&#160;</text><text class="terminal-1897554627-r13" x="158.6" y="727.6" textLength="61" clip-path="url(#terminal-1897554627-line-29)">10.4%</text><text class="terminal-1897554627-r3" x="402.6" y="727.6" textLength="61" clip-path="url(#terminal-1897554627-line-29)">RAM:&#160;</text><text class="terminal-1897554627-r14" x="463.6" y="727.6" textLength="61" clip-path="url(#terminal-1897554627-line-29)">73.1%</text><text class="terminal-1897554627-r3" x="707.6" y="727.6" textLength="73.2" clip-path="url(#terminal-1897554627-line-29)">Disk:&#160;</text><text class="terminal-1897554627-r15" x="780.8" y="727.6" textLength="61" clip-path="url(#terminal-1897554627-line-29)">34.9%</text><text class="terminal-1897554627-r1" x="1598.2" y="727.6" textLength="12.2" clip-path="url(#terminal-1897554627-line-29)">
</text><text class="terminal-1897554627-r1" x="1598.2" y="752" textLength="12.2" clip-path="url(#terminal-1897554627-line-30)">
</text><text class="terminal-1897554627-r16" x="0" y="776.4" textLength="48.8" clip-path="url(#terminal-1897554627-line-31)">&#160;^s&#160;</text><text class="terminal-1897554627-r6" x="48.8" y="776.4" textLength="207.4" clip-path="url(#terminal-1897554627-line-31)">Screenshot&#160;(SVG)&#160;</text><text class="terminal-1897554627-r17" x="1451.8" y="776.4" textLength="12.2" clip-path="url(#terminal-1897554627-line-31)">▏</text><text class="terminal-1897554627-r16" x="1464" y="776.4" textLength="24.4" clip-path="url(#terminal-1897554627-line-31)">^o</text><text class="terminal-1897554627-r6" x="1488.4" y="776.4" textLength="97.6" clip-path="url(#terminal-1897554627-line-31)">&#160;palette</text>
    </g>
    </g>
</svg>
